<svg xmlns="http://www.w3.org/2000/svg" width="143" height="48" viewBox="0 0 143 48" fill="none"><path d="M137.641 35.7413H143L137.101 12.2708H129.188L123.247 35.7413H128.606L129.487 31.8261H136.775L137.641 35.7413ZM130.529 27.1839L132.677 17.6295H133.633L135.747 27.1839H130.529Z" fill="white"/><path d="M59.7529 12.2898V12.3729L58.2782 25.7075C58.2782 25.749 58.2575 25.8113 58.2575 25.8529C58.1536 26.8914 57.9874 27.8261 57.6759 29.1969C57.302 30.8585 56.3673 31.3778 54.7473 31.3778V36.3627C57.8213 36.3627 61.3107 36.3627 62.5154 30.9832C62.8893 29.28 63.1177 27.7637 63.2631 26.4137V26.3929H63.2839L64.3016 17.067H67.5418V35.7604H72.7552V12.2898H59.7529Z" fill="white"/><path d="M81.9154 26.1246H89.2059V21.5551H81.9154V17.0479H89.8497V12.2708H76.7042V35.7413H89.8497V30.9641H81.9154V26.1246Z" fill="white"/><path d="M100.007 11.8318C94.9595 11.8318 92.2385 14.7396 92.2385 19.4545V28.4066C92.2385 33.1215 94.9595 36.0293 100.007 36.0293C105.054 36.0293 107.629 33.1215 107.629 28.4066V27.4511H102.79L102.769 28.4066C102.769 30.4213 101.959 31.2729 99.9859 31.2729C98.0127 31.2729 97.1404 30.4213 97.1404 28.4066V19.4545C97.1404 17.4398 98.0127 16.5882 99.9859 16.5882C101.959 16.5882 102.769 17.4398 102.769 19.4545V20.1192H107.629V19.4545C107.629 14.7604 105.054 11.8318 100.007 11.8318Z" fill="white"/><path d="M124.451 12.248H109.372V17.0252H114.315V35.7186H119.528V17.0252H124.451V12.248Z" fill="white"/><path d="M3.46948 12.2605V35.7435L15.211 24.002L3.46948 12.2605Z" fill="#0069FF"/><path d="M14.5975 0.496338H6.10352e-05L23.508 24.0043L0.00837731 47.5039H14.6079C17.6923 47.5039 20.65 46.2785 22.8309 44.0997L42.9325 24.0043L22.8205 3.9006C20.6396 1.71971 17.6819 0.496338 14.5975 0.496338Z" fill="white"/></svg>