<svg xmlns="http://www.w3.org/2000/svg" width="143" height="36" viewBox="0 0 143 36" fill="none">
    <g clip-path="url(#clip0_2_233)">
        <path d="M4.38666 8.17864H6.29993V3.79272H0V14.8087L4.38666 17.9987V8.17864Z" fill="white"/>
        <path d="M15.2276 8.17888V3.7937H8.21543V8.17888H9.5278V10.0936H6.3029V21.7239L9.5278 24.057V26.3939L4.38666 22.6705V20.3329L0 17.1428V24.9488L11.7215 33.4676L23.443 24.9488V17.1458L19.0578 20.3358V22.6742L13.9145 26.3939V24.057L17.1393 21.7239V10.0936H13.9145V8.17888H15.2276ZM15.7268 15.004L13.4946 16.8587L14.1837 19.7008L11.7178 18.1488L9.25553 19.7023L9.94695 16.8557L7.71616 15.0011L10.6354 14.8052L11.7208 12.0759L12.8076 14.8164L15.7276 15.0115L15.7268 15.004Z" fill="white"/>
        <path d="M19.0564 17.9948L23.4415 14.8047V3.79248H17.1409V8.1784H19.0564V17.9948Z" fill="white"/>
        <path fill-rule="evenodd" clip-rule="evenodd" d="M48.4573 8.18256L45.8504 16.6769H45.5833V8.18256H42.1744V24.951H45.5811L48.2756 16.4269H48.5397V24.9495H51.9218V8.18256H48.4573Z" fill="white"/>
        <path fill-rule="evenodd" clip-rule="evenodd" d="M61.4259 10.308C61.2801 9.89071 61.0419 9.51176 60.7291 9.19947C60.4163 8.88717 60.037 8.64961 59.6194 8.50453C58.8123 8.24191 58.1357 8.18256 56.9561 8.18256H53.3544V24.9487H56.9591V20.1852C58.1387 20.1852 58.8138 20.1251 59.6224 19.8625C60.0394 19.717 60.4181 19.4793 60.7304 19.167C61.0427 18.8548 61.2804 18.476 61.4259 18.059C61.6885 17.2541 61.7479 16.5753 61.7479 15.3957V12.9713C61.7479 11.7917 61.6885 11.1107 61.4259 10.308ZM58.3219 16.9255C58.2912 17.0121 58.2414 17.0908 58.1764 17.1558C58.1113 17.2207 58.0325 17.2703 57.9458 17.3008C57.7656 17.3527 57.5783 17.3755 57.3909 17.3684H56.9591V10.9994H57.3938C57.5812 10.9921 57.7685 11.0146 57.9488 11.0662C58.0354 11.097 58.1142 11.1468 58.1792 11.2118C58.2443 11.2769 58.2941 11.3556 58.3249 11.4423C58.3764 11.6231 58.3992 11.8109 58.3924 11.9987V16.3683C58.3983 16.5566 58.3745 16.7446 58.3219 16.9255Z" fill="white"/>
        <path fill-rule="evenodd" clip-rule="evenodd" d="M36.2966 8.18256L34.4056 17.5405H34.2179L32.3269 8.18256H27.7867V24.951H31.1978V15.4402H31.4871L33.5458 24.951H35.077L37.1364 15.4402H37.4257V24.951H40.8368V8.18256H36.2966Z" fill="white"/>
        <path fill-rule="evenodd" clip-rule="evenodd" d="M101.781 8.18256H96.0762L93.5798 24.9487H97.1141L97.5102 21.9813H100.348L100.744 24.9487H104.28L101.781 8.18256ZM97.9005 19.088L98.7558 11.725H99.1023L99.9577 19.088H97.9005Z" fill="white"/>
        <path fill-rule="evenodd" clip-rule="evenodd" d="M122.11 8.18256H116.107L113.902 24.951H117.582L118.935 12.2547H119.281L120.634 24.951H124.315L122.11 8.18256Z" fill="white"/>
        <path fill-rule="evenodd" clip-rule="evenodd" d="M75.1734 8.12552H71.2927L69.3193 14.8001H68.9654V8.12552H65.3607V24.9518H68.9654V17.8677H69.3193L71.2927 24.9518H75.1734L72.4433 16.3024V16.2742L75.1734 8.12552Z" fill="white"/>
        <path fill-rule="evenodd" clip-rule="evenodd" d="M139.535 8.18256L137.01 16.6769H136.744V8.18256H133.417V24.951H136.823L139.436 16.4269H139.7V24.9495H143V8.18256H139.535Z" fill="white"/>
        <path d="M141.111 5.05031H135.306V7.06299H141.111V5.05031Z" fill="white"/>
        <path fill-rule="evenodd" clip-rule="evenodd" d="M132.254 11.2947V8.18256H125.03V24.951H132.254V21.8381H128.635V17.743H131.771V14.869H128.635V11.2947H132.254Z" fill="white"/>
        <path fill-rule="evenodd" clip-rule="evenodd" d="M83.9408 10.381C83.7885 9.93238 83.5428 9.52116 83.2199 9.17447C82.897 8.82779 82.5043 8.55353 82.0676 8.3698C81.3571 8.0716 80.5943 7.91801 79.8238 7.91801C79.0533 7.91801 78.2905 8.0716 77.5801 8.3698C77.1435 8.55378 76.7509 8.82812 76.428 9.17477C76.1052 9.52142 75.8594 9.93251 75.7068 10.381C75.3359 11.4256 75.3359 12.3099 75.3359 15.1223V17.954C75.3359 20.7627 75.3359 21.6507 75.7068 22.6945C75.8592 23.1432 76.105 23.5544 76.4279 23.9012C76.7507 24.248 77.1434 24.5224 77.5801 24.7065C78.2905 25.0046 79.0533 25.1582 79.8238 25.1582C80.5943 25.1582 81.3571 25.0046 82.0676 24.7065C82.5044 24.5227 82.8972 24.2483 83.2201 23.9015C83.543 23.5547 83.7887 23.1433 83.9408 22.6945C84.3118 21.6507 84.3118 20.7657 84.3118 17.954V15.1223C84.3118 12.3136 84.3103 11.4256 83.9408 10.381ZM80.7063 20.5602C80.7063 21.1959 80.6796 21.3977 80.5995 21.5773C80.5321 21.7442 80.4037 21.8792 80.2404 21.9549C80.1096 22.0145 79.9676 22.0454 79.8238 22.0454C79.6801 22.0454 79.538 22.0145 79.4073 21.9549C79.2439 21.8792 79.1155 21.7442 79.0482 21.5773C78.9681 21.3977 78.9414 21.1959 78.9414 20.5602C78.9414 20.2419 78.9414 16.5378 78.9414 16.5378C78.9414 16.5378 78.9414 12.8336 78.9414 12.5161C78.9414 11.8803 78.9681 11.6785 79.0482 11.4983C79.1154 11.3314 79.2438 11.1965 79.4073 11.1214C79.5379 11.0613 79.68 11.0301 79.8238 11.0301C79.9676 11.0301 80.1097 11.0613 80.2404 11.1214C80.4038 11.1965 80.5323 11.3314 80.5995 11.4983C80.6796 11.6785 80.7063 11.8803 80.7063 12.5161C80.7063 12.8336 80.7063 16.5378 80.7063 16.5378C80.7063 16.5378 80.7063 20.2419 80.7063 20.5602Z" fill="white"/>
        <path fill-rule="evenodd" clip-rule="evenodd" d="M93.6614 10.308C93.5159 9.89102 93.2782 9.51227 92.9659 9.2C92.6536 8.88772 92.2749 8.64999 91.8579 8.50453C91.0515 8.24191 90.3742 8.18256 89.1946 8.18256H85.5899V24.9487H89.1946V20.0205C90.3742 20.0205 91.0493 19.9604 91.8579 19.6978C92.2749 19.5524 92.6536 19.3146 92.9659 19.0023C93.2782 18.6901 93.5159 18.3113 93.6614 17.8943C93.924 17.0887 93.9841 16.4106 93.9841 15.231V12.9713C93.9841 11.7917 93.924 11.1107 93.6614 10.308ZM90.5574 16.7622C90.5268 16.849 90.4771 16.9277 90.412 16.9927C90.3469 17.0576 90.2681 17.1072 90.1813 17.1376C90.001 17.1892 89.8137 17.2118 89.6264 17.2044H89.1946V10.9994H89.6264C89.8137 10.9921 90.001 11.0146 90.1813 11.0662C90.268 11.0969 90.3468 11.1466 90.4119 11.2117C90.477 11.2768 90.5267 11.3556 90.5574 11.4423C90.609 11.6231 90.6317 11.8109 90.6249 11.9987V16.2036C90.631 16.3918 90.6074 16.5798 90.5552 16.7608L90.5574 16.7622Z" fill="white"/>
        <path fill-rule="evenodd" clip-rule="evenodd" d="M113.207 15.8987C113.062 15.4815 112.823 15.1026 112.511 14.7902C112.198 14.4778 111.819 14.24 111.402 14.0945C110.595 13.8326 109.918 13.7725 108.739 13.7725V11.199H112.811V8.18256H105.136V24.9487H108.741C109.92 24.9487 110.595 24.8887 111.403 24.626C111.82 24.4806 112.199 24.2429 112.512 23.9306C112.824 23.6184 113.062 23.2396 113.207 22.8226C113.469 22.0169 113.529 21.3388 113.529 20.1593V18.5613C113.529 17.3817 113.469 16.7036 113.207 15.8987ZM110.17 21.1341C110.177 21.3222 110.155 21.5103 110.103 21.6912C110.072 21.7779 110.022 21.8567 109.957 21.9216C109.892 21.9866 109.813 22.0361 109.727 22.0666C109.546 22.1185 109.359 22.1412 109.172 22.1341H108.741V16.5894H109.172C109.359 16.5824 109.546 16.6049 109.727 16.6562C109.813 16.6869 109.892 16.7366 109.957 16.8017C110.022 16.8668 110.072 16.9455 110.103 17.0323C110.155 17.213 110.177 17.4008 110.17 17.5887V21.1341Z" fill="white"/>
    </g>
    <defs>
        <clipPath id="clip0_2_233">
            <rect width="143" height="36" fill="white"/>
        </clipPath>
    </defs>
</svg>